<svg xmlns="http://www.w3.org/2000/svg" class="logo logo--light" viewBox="0 0 160 56">
  <g fill="none" fill-rule="evenodd">
    <path fill="#292D2F" d="M6.424 28.556c0 .176.044.22.22.22h3.608c.176 0 .22-.044.22-.22V2.552c0-.22.176-.352.352-.352h4.004c.176 0 .308.132.308.352v26.356c0 2.728-.968 4.312-4.4 4.312H6.292c-3.52 0-4.532-1.584-4.532-4.224V2.552c0-.22.132-.352.352-.352h3.96c.22 0 .352.132.352.352v26.004zM39.908 33h-4.532c-.264 0-.308-.22-.352-.352l-2.86-17.336-2.728 17.336c0 .132-.088.352-.352.352h-4.532c-.264 0-.352-.22-.352-.352L19.096 2.552c0-.22.132-.352.352-.352h4.136c.176 0 .352.132.352.352l2.86 18.876L29.7 2.552c0-.22.132-.352.352-.352h4.356c.176 0 .352.132.352.352l2.86 18.876 2.904-18.876c0-.22.132-.352.352-.352h4.136c.22 0 .352.132.352.352L40.26 32.648c0 .132-.088.352-.352.352zM52.272 2.2h4.532c.264 0 .352.22.352.352l4.972 30.096c0 .22-.132.352-.352.352H57.64a.347.347 0 0 1-.352-.352L56.276 25.3h-3.652l-1.1 7.348c0 .22-.132.352-.352.352h-4.136c-.22 0-.352-.132-.352-.352L51.92 2.552c0-.132.088-.352.352-.352zm2.288 10.208L53.284 20.9h2.42l-1.144-8.492zM74.756 6.6h-3.388v26.048c0 .264-.132.352-.308.352h-4.004c-.22 0-.352-.22-.352-.352V6.6H63.36c-.264 0-.352-.176-.352-.308v-3.74c0-.22.132-.352.352-.352h11.396c.176 0 .352.132.352.352v3.74c0 .22-.176.308-.352.308zM87.824 33H79.64c-.264 0-.352-.22-.352-.352V2.552c0-.22.132-.352.352-.352h8.184c.176 0 .352.132.352.352v3.74c0 .22-.176.308-.352.308h-3.872v8.536h3.872c.176 0 .352.132.352.352v3.74c0 .264-.176.352-.352.352h-3.872v8.976h3.872c.176 0 .352.132.352.308v3.784c0 .264-.176.352-.352.352zm18.436 0h-4.4c-.264 0-.352-.22-.352-.352L98.12 20.504v12.144c0 .264-.132.352-.352.352h-3.96c-.264 0-.352-.22-.352-.352V2.552c0-.22.132-.352.352-.352h7.92c3.256 0 4.444 1.584 4.444 4.268v9.02c0 2.464-.792 4.004-3.432 4.268l3.872 12.892c.044.264-.132.352-.352.352zm-4.972-26.356H98.12v8.712h3.168c.176 0 .22-.044.22-.22V6.864c0-.176-.044-.22-.22-.22zM120.824 33h-8.536c-.264 0-.352-.22-.352-.352V2.552c0-.22.132-.352.352-.352h3.96c.22 0 .352.132.352.352v26.004h4.224c.22 0 .352.176.352.352v3.74c0 .264-.132.352-.352.352zm8.404.22c-3.52 0-4.532-1.584-4.532-4.224V6.292c0-2.728 1.188-4.312 4.444-4.312h4.488c3.256 0 4.444 1.584 4.444 4.268v22.66c0 2.728-.968 4.312-4.4 4.312h-4.444zm4.18-26.576c0-.176-.044-.22-.22-.22h-3.608c-.176 0-.22.044-.22.22v21.912c0 .176.044.22.22.22h3.608c.176 0 .22-.044.22-.22V6.644zm14.476 26.576c-3.52 0-4.532-1.584-4.532-4.224V6.292c0-2.728 1.188-4.312 4.444-4.312h4.488c3.256 0 4.444 1.584 4.444 4.268v22.66c0 2.728-.968 4.312-4.4 4.312h-4.444zm4.18-26.576c0-.176-.044-.22-.22-.22h-3.608c-.176 0-.22.044-.22.22v21.912c0 .176.044.22.22.22h3.608c.176 0 .22-.044.22-.22V6.644z"/>
    <path fill="#D96C1A" d="M9.184 55h-2.16c-.144 0-.192-.12-.192-.192V47.68H4.624v7.128c0 .144-.072.192-.192.192h-2.16c-.144 0-.192-.12-.192-.192V38.392c0-.12.072-.192.192-.192h2.16c.12 0 .192.072.192.192v6.864h2.208v-6.864c0-.12.072-.192.192-.192h2.16c.12 0 .192.072.192.192v16.416c0 .144-.072.192-.192.192zm5.776-2.424c0 .096.024.12.12.12h1.968c.096 0 .12-.024.12-.12V38.392a.19.19 0 0 1 .192-.192h2.184c.096 0 .168.072.168.192v14.376c0 1.488-.528 2.352-2.4 2.352h-2.424c-1.92 0-2.472-.864-2.472-2.304V38.392c0-.12.072-.192.192-.192h2.16c.12 0 .192.072.192.192v14.184zm15.424 2.232v-8.256l-1.368 4.656c-.048.168-.12.36-.312.384h-1.776c-.192-.024-.24-.216-.312-.384l-1.368-4.584v8.184c0 .144-.072.192-.192.192h-2.112c-.144 0-.192-.12-.192-.192V38.392c0-.12.072-.192.192-.192h2.04c.264 0 .288.192.336.336l2.496 8.544 2.496-8.544c.048-.144.072-.336.36-.336h2.016c.12 0 .192.072.192.192v16.416c0 .072-.048.192-.192.192h-2.112c-.096 0-.192-.048-.192-.192zM38.008 38.2h2.472c.144 0 .192.12.192.192l2.712 16.416c0 .12-.072.192-.192.192h-2.256a.19.19 0 0 1-.192-.192l-.552-4.008H38.2l-.6 4.008c0 .12-.072.192-.192.192h-2.256c-.12 0-.192-.072-.192-.192l2.856-16.416c0-.072.048-.192.192-.192zm1.248 5.568L38.56 48.4h1.32l-.624-4.632zM52.568 55h-2.16c-.144 0-.192-.12-.192-.192l-2.256-7.992v7.992c0 .144-.072.192-.192.192h-2.112c-.144 0-.192-.12-.192-.192V38.392c0-.12.072-.192.192-.192h2.16c.12 0 .192.072.192.192l2.256 7.992v-7.992c0-.12.072-.192.192-.192h2.112a.19.19 0 0 1 .192.192v16.416c0 .144-.096.192-.192.192zm2.992-9.504v-5.064c0-1.488.648-2.352 2.424-2.352h2.448c1.776 0 2.424.864 2.424 2.328v2.232c0 .12-.072.168-.192.168h-2.16c-.096 0-.192-.048-.192-.168v-2.016c0-.096-.024-.12-.12-.12h-1.968c-.096 0-.12.024-.12.12v4.632c0 .096.024.12.12.12h2.208c1.896 0 2.424.864 2.424 2.304v5.088c0 1.488-.528 2.352-2.4 2.352h-2.424c-1.92 0-2.472-.864-2.472-2.304v-2.472c0-.12.072-.168.192-.168h2.16c.096 0 .192.048.192.168v2.232c0 .096.024.12.12.12h1.968c.096 0 .12-.024.12-.12V47.92c0-.096-.024-.12-.12-.12h-2.208c-1.728 0-2.424-.336-2.424-2.304z"/>
    <path fill="#292D2F" d="M74.948 55h-2.472c-.144 0-.192-.12-.192-.192L69.5 38.392c0-.12.072-.192.192-.192h2.256a.19.19 0 0 1 .192.192l1.56 10.296 1.584-10.296c0-.12.072-.192.192-.192h2.256c.12 0 .192.072.192.192L75.14 54.808c0 .072-.048.192-.192.192zm4.696-9.504v-5.064c0-1.488.648-2.352 2.424-2.352h2.448c1.776 0 2.424.864 2.424 2.328v2.232c0 .12-.072.168-.192.168h-2.16c-.096 0-.192-.048-.192-.168v-2.016c0-.096-.024-.12-.12-.12h-1.968c-.096 0-.12.024-.12.12v4.632c0 .096.024.12.12.12h2.208c1.896 0 2.424.864 2.424 2.304v5.088c0 1.488-.528 2.352-2.4 2.352h-2.424c-1.92 0-2.472-.864-2.472-2.304v-2.472c0-.12.072-.168.192-.168h2.16c.096 0 .192.048.192.168v2.232c0 .096.024.12.12.12h1.968c.096 0 .12-.024.12-.12V47.92c0-.096-.024-.12-.12-.12h-2.208c-1.728 0-2.424-.336-2.424-2.304z"/>
    <path fill="#75B600" d="M100.384 40.936L96.28 52.6h3.936c.096 0 .168.072.168.168v2.04c0 .144-.072.192-.168.192h-6.384c-.144 0-.192-.12-.192-.192v-1.896c0-.144.024-.384.072-.504L97.888 40.6h-3.912c-.144 0-.192-.096-.192-.168v-2.04c0-.12.072-.192.192-.192h6.36c.12 0 .192.072.192.192v1.872c0 .216-.048.456-.144.672zm4.576 14.184c-1.92 0-2.472-.864-2.472-2.304V40.432c0-1.488.648-2.352 2.424-2.352h2.448c1.776 0 2.424.864 2.424 2.328v12.36c0 1.488-.528 2.352-2.4 2.352h-2.424zm2.28-14.496c0-.096-.024-.12-.12-.12h-1.968c-.096 0-.12.024-.12.12v11.952c0 .096.024.12.12.12h1.968c.096 0 .12-.024.12-.12V40.624zm13.096 14.184v-8.256l-1.368 4.656c-.048.168-.12.36-.312.384h-1.776c-.192-.024-.24-.216-.312-.384l-1.368-4.584v8.184c0 .144-.072.192-.192.192h-2.112c-.144 0-.192-.12-.192-.192V38.392c0-.12.072-.192.192-.192h2.04c.264 0 .288.192.336.336l2.496 8.544 2.496-8.544c.048-.144.072-.336.36-.336h2.016c.12 0 .192.072.192.192v16.416c0 .072-.048.192-.192.192h-2.112c-.096 0-.192-.048-.192-.192zm5.848.192c-.144 0-.192-.12-.192-.192V38.392c0-.12.072-.192.192-.192h4.68c1.776 0 2.424.864 2.424 2.328v3.96c0 1.272-.336 1.752-.768 2.112.432.36.768.84.768 2.112v3.936c0 1.488-.528 2.352-2.4 2.352h-4.704zm4.44-7.2h-2.088v4.776h2.088c.096 0 .12-.024.12-.12V47.92c0-.096-.024-.12-.12-.12zm0-7.176h-2.088v4.752h2.088c.096 0 .12-.024.12-.12v-4.512c0-.096-.024-.12-.12-.12zM138.56 55h-2.16c-.144 0-.192-.12-.192-.192V38.392c0-.12.072-.192.192-.192h2.16c.12 0 .192.072.192.192v16.416c0 .144-.072.192-.192.192zm8.008 0h-4.464c-.144 0-.192-.12-.192-.192V38.392c0-.12.072-.192.192-.192h4.464a.19.19 0 0 1 .192.192v2.04c0 .12-.096.168-.192.168h-2.112v4.656h2.112a.19.19 0 0 1 .192.192v2.04c0 .144-.096.192-.192.192h-2.112v4.896h2.112c.096 0 .192.072.192.168v2.064c0 .144-.096.192-.192.192zm2.392-9.504v-5.064c0-1.488.648-2.352 2.424-2.352h2.448c1.776 0 2.424.864 2.424 2.328v2.232c0 .12-.072.168-.192.168h-2.16c-.096 0-.192-.048-.192-.168v-2.016c0-.096-.024-.12-.12-.12h-1.968c-.096 0-.12.024-.12.12v4.632c0 .096.024.12.12.12h2.208c1.896 0 2.424.864 2.424 2.304v5.088c0 1.488-.528 2.352-2.4 2.352h-2.424c-1.92 0-2.472-.864-2.472-2.304v-2.472c0-.12.072-.168.192-.168h2.16c.096 0 .192.048.192.168v2.232c0 .096.024.12.12.12h1.968c.096 0 .12-.024.12-.12V47.92c0-.096-.024-.12-.12-.12h-2.208c-1.728 0-2.424-.336-2.424-2.304z"/>
  </g>
</svg>
